<mxfile host="app.diagrams.net" agent="Mozilla/5.0 (Macintosh; Intel Mac OS X 10_15_7) AppleWebKit/537.36 (KHTML, like Gecko) Chrome/131.0.0.0 Safari/537.36" version="24.9.3">
  <diagram name="Страница-1" id="uEHuKMSE2N0JUSPgCtFt">
    <mxGraphModel dx="2020" dy="2190" grid="1" gridSize="10" guides="1" tooltips="1" connect="1" arrows="1" fold="1" page="1" pageScale="1" pageWidth="827" pageHeight="1169" math="0" shadow="0">
      <root>
        <mxCell id="0" />
        <mxCell id="1" parent="0" />
        <mxCell id="MIlLbQiRrZec8vaQKSXW-1" value="AWS Cloud" style="points=[[0,0],[0.25,0],[0.5,0],[0.75,0],[1,0],[1,0.25],[1,0.5],[1,0.75],[1,1],[0.75,1],[0.5,1],[0.25,1],[0,1],[0,0.75],[0,0.5],[0,0.25]];outlineConnect=0;gradientColor=none;html=1;whiteSpace=wrap;fontSize=12;fontStyle=0;container=1;pointerEvents=0;collapsible=0;recursiveResize=0;shape=mxgraph.aws4.group;grIcon=mxgraph.aws4.group_aws_cloud_alt;strokeColor=#232F3E;fillColor=none;verticalAlign=top;align=left;spacingLeft=30;fontColor=#232F3E;dashed=0;" vertex="1" parent="1">
          <mxGeometry x="110" y="60" width="1480" height="980" as="geometry" />
        </mxCell>
        <mxCell id="MIlLbQiRrZec8vaQKSXW-62" value="Amazon Cloudfront" style="sketch=0;outlineConnect=0;fontColor=#232F3E;gradientColor=none;strokeColor=#ffffff;fillColor=#232F3E;dashed=0;verticalLabelPosition=middle;verticalAlign=bottom;align=center;html=1;whiteSpace=wrap;fontSize=10;fontStyle=1;spacing=3;shape=mxgraph.aws4.productIcon;prIcon=mxgraph.aws4.cloudfront;" vertex="1" parent="MIlLbQiRrZec8vaQKSXW-1">
          <mxGeometry x="709.5" y="120" width="61" height="90" as="geometry" />
        </mxCell>
        <mxCell id="MIlLbQiRrZec8vaQKSXW-68" value="" style="edgeStyle=orthogonalEdgeStyle;rounded=0;orthogonalLoop=1;jettySize=auto;html=1;" edge="1" parent="MIlLbQiRrZec8vaQKSXW-1" source="MIlLbQiRrZec8vaQKSXW-64" target="MIlLbQiRrZec8vaQKSXW-62">
          <mxGeometry relative="1" as="geometry" />
        </mxCell>
        <mxCell id="MIlLbQiRrZec8vaQKSXW-64" value="Route 53" style="sketch=0;points=[[0,0,0],[0.25,0,0],[0.5,0,0],[0.75,0,0],[1,0,0],[0,1,0],[0.25,1,0],[0.5,1,0],[0.75,1,0],[1,1,0],[0,0.25,0],[0,0.5,0],[0,0.75,0],[1,0.25,0],[1,0.5,0],[1,0.75,0]];outlineConnect=0;fontColor=#232F3E;fillColor=#8C4FFF;strokeColor=#ffffff;dashed=0;verticalLabelPosition=bottom;verticalAlign=top;align=center;html=1;fontSize=12;fontStyle=0;aspect=fixed;shape=mxgraph.aws4.resourceIcon;resIcon=mxgraph.aws4.route_53;" vertex="1" parent="MIlLbQiRrZec8vaQKSXW-1">
          <mxGeometry x="709.5" y="10" width="59" height="59" as="geometry" />
        </mxCell>
        <mxCell id="MIlLbQiRrZec8vaQKSXW-4" value="Region" style="points=[[0,0],[0.25,0],[0.5,0],[0.75,0],[1,0],[1,0.25],[1,0.5],[1,0.75],[1,1],[0.75,1],[0.5,1],[0.25,1],[0,1],[0,0.75],[0,0.5],[0,0.25]];outlineConnect=0;gradientColor=none;html=1;whiteSpace=wrap;fontSize=12;fontStyle=0;container=1;pointerEvents=0;collapsible=0;recursiveResize=0;shape=mxgraph.aws4.group;grIcon=mxgraph.aws4.group_region;strokeColor=#00A4A6;fillColor=none;verticalAlign=top;align=left;spacingLeft=30;fontColor=#147EBA;dashed=1;" vertex="1" parent="1">
          <mxGeometry x="210" y="290" width="1290" height="670" as="geometry" />
        </mxCell>
        <mxCell id="MIlLbQiRrZec8vaQKSXW-20" value="VPC" style="points=[[0,0],[0.25,0],[0.5,0],[0.75,0],[1,0],[1,0.25],[1,0.5],[1,0.75],[1,1],[0.75,1],[0.5,1],[0.25,1],[0,1],[0,0.75],[0,0.5],[0,0.25]];outlineConnect=0;gradientColor=none;html=1;whiteSpace=wrap;fontSize=12;fontStyle=0;container=1;pointerEvents=0;collapsible=0;recursiveResize=0;shape=mxgraph.aws4.group;grIcon=mxgraph.aws4.group_vpc2;strokeColor=#8C4FFF;fillColor=none;verticalAlign=top;align=left;spacingLeft=30;fontColor=#AAB7B8;dashed=0;" vertex="1" parent="MIlLbQiRrZec8vaQKSXW-4">
          <mxGeometry x="680" y="60" width="540" height="560" as="geometry" />
        </mxCell>
        <mxCell id="MIlLbQiRrZec8vaQKSXW-21" value="Availability Zone" style="fillColor=none;strokeColor=#147EBA;dashed=1;verticalAlign=top;fontStyle=0;fontColor=#147EBA;whiteSpace=wrap;html=1;" vertex="1" parent="MIlLbQiRrZec8vaQKSXW-4">
          <mxGeometry x="710" y="110" width="480" height="470" as="geometry" />
        </mxCell>
        <mxCell id="MIlLbQiRrZec8vaQKSXW-44" value="" style="edgeStyle=orthogonalEdgeStyle;rounded=0;orthogonalLoop=1;jettySize=auto;html=1;startArrow=none;startFill=0;" edge="1" parent="MIlLbQiRrZec8vaQKSXW-4" source="MIlLbQiRrZec8vaQKSXW-22" target="MIlLbQiRrZec8vaQKSXW-39">
          <mxGeometry relative="1" as="geometry">
            <Array as="points">
              <mxPoint x="650" y="210" />
            </Array>
          </mxGeometry>
        </mxCell>
        <mxCell id="MIlLbQiRrZec8vaQKSXW-22" value="Frontend&lt;div&gt;&lt;br&gt;&lt;/div&gt;" style="fillColor=#EFF0F3;strokeColor=none;dashed=0;verticalAlign=top;fontStyle=0;fontColor=#232F3D;whiteSpace=wrap;html=1;" vertex="1" parent="MIlLbQiRrZec8vaQKSXW-4">
          <mxGeometry x="750" y="150" width="405" height="120" as="geometry" />
        </mxCell>
        <mxCell id="MIlLbQiRrZec8vaQKSXW-23" value="&lt;div&gt;Backend API&lt;/div&gt;" style="fillColor=#EFF0F3;strokeColor=none;dashed=0;verticalAlign=top;fontStyle=0;fontColor=#232F3D;whiteSpace=wrap;html=1;" vertex="1" parent="MIlLbQiRrZec8vaQKSXW-4">
          <mxGeometry x="750" y="300" width="410" height="110" as="geometry" />
        </mxCell>
        <mxCell id="MIlLbQiRrZec8vaQKSXW-59" value="Multi-AZ" style="edgeStyle=orthogonalEdgeStyle;rounded=0;orthogonalLoop=1;jettySize=auto;html=1;startArrow=classic;startFill=1;endArrow=none;endFill=0;" edge="1" parent="MIlLbQiRrZec8vaQKSXW-4" source="MIlLbQiRrZec8vaQKSXW-24" target="MIlLbQiRrZec8vaQKSXW-58">
          <mxGeometry relative="1" as="geometry" />
        </mxCell>
        <mxCell id="MIlLbQiRrZec8vaQKSXW-24" value="&lt;div&gt;DB&lt;/div&gt;" style="fillColor=#EFF0F3;strokeColor=none;dashed=0;verticalAlign=top;fontStyle=0;fontColor=#232F3D;whiteSpace=wrap;html=1;" vertex="1" parent="MIlLbQiRrZec8vaQKSXW-4">
          <mxGeometry x="750" y="440" width="410" height="110" as="geometry" />
        </mxCell>
        <mxCell id="MIlLbQiRrZec8vaQKSXW-25" value="Amazon EC2" style="sketch=0;outlineConnect=0;fontColor=#232F3E;gradientColor=none;strokeColor=#ffffff;fillColor=#232F3E;dashed=0;verticalLabelPosition=middle;verticalAlign=bottom;align=center;html=1;whiteSpace=wrap;fontSize=10;fontStyle=1;spacing=3;shape=mxgraph.aws4.productIcon;prIcon=mxgraph.aws4.ec2;" vertex="1" parent="MIlLbQiRrZec8vaQKSXW-4">
          <mxGeometry x="1006" y="325" width="40" height="65" as="geometry" />
        </mxCell>
        <mxCell id="MIlLbQiRrZec8vaQKSXW-26" value="Amazon EC2" style="sketch=0;outlineConnect=0;fontColor=#232F3E;gradientColor=none;strokeColor=#ffffff;fillColor=#232F3E;dashed=0;verticalLabelPosition=middle;verticalAlign=bottom;align=center;html=1;whiteSpace=wrap;fontSize=10;fontStyle=1;spacing=3;shape=mxgraph.aws4.productIcon;prIcon=mxgraph.aws4.ec2;" vertex="1" parent="MIlLbQiRrZec8vaQKSXW-4">
          <mxGeometry x="926" y="325" width="40" height="65" as="geometry" />
        </mxCell>
        <mxCell id="MIlLbQiRrZec8vaQKSXW-27" value="Amazon EC2" style="sketch=0;outlineConnect=0;fontColor=#232F3E;gradientColor=none;strokeColor=#ffffff;fillColor=#232F3E;dashed=0;verticalLabelPosition=middle;verticalAlign=bottom;align=center;html=1;whiteSpace=wrap;fontSize=10;fontStyle=1;spacing=3;shape=mxgraph.aws4.productIcon;prIcon=mxgraph.aws4.ec2;" vertex="1" parent="MIlLbQiRrZec8vaQKSXW-4">
          <mxGeometry x="820" y="325" width="40" height="65" as="geometry" />
        </mxCell>
        <mxCell id="MIlLbQiRrZec8vaQKSXW-28" value="Amazon EC2" style="sketch=0;outlineConnect=0;fontColor=#232F3E;gradientColor=none;strokeColor=#ffffff;fillColor=#232F3E;dashed=0;verticalLabelPosition=middle;verticalAlign=bottom;align=center;html=1;whiteSpace=wrap;fontSize=10;fontStyle=1;spacing=3;shape=mxgraph.aws4.productIcon;prIcon=mxgraph.aws4.ec2;" vertex="1" parent="MIlLbQiRrZec8vaQKSXW-4">
          <mxGeometry x="1006" y="180" width="40" height="70" as="geometry" />
        </mxCell>
        <mxCell id="MIlLbQiRrZec8vaQKSXW-29" value="Amazon EC2" style="sketch=0;outlineConnect=0;fontColor=#232F3E;gradientColor=none;strokeColor=#ffffff;fillColor=#232F3E;dashed=0;verticalLabelPosition=middle;verticalAlign=bottom;align=center;html=1;whiteSpace=wrap;fontSize=10;fontStyle=1;spacing=3;shape=mxgraph.aws4.productIcon;prIcon=mxgraph.aws4.ec2;" vertex="1" parent="MIlLbQiRrZec8vaQKSXW-4">
          <mxGeometry x="926" y="180" width="40" height="70" as="geometry" />
        </mxCell>
        <mxCell id="MIlLbQiRrZec8vaQKSXW-30" value="Amazon EC2" style="sketch=0;outlineConnect=0;fontColor=#232F3E;gradientColor=none;strokeColor=#ffffff;fillColor=#232F3E;dashed=0;verticalLabelPosition=middle;verticalAlign=bottom;align=center;html=1;whiteSpace=wrap;fontSize=10;fontStyle=1;spacing=3;shape=mxgraph.aws4.productIcon;prIcon=mxgraph.aws4.ec2;" vertex="1" parent="MIlLbQiRrZec8vaQKSXW-4">
          <mxGeometry x="820" y="180" width="40" height="70" as="geometry" />
        </mxCell>
        <mxCell id="MIlLbQiRrZec8vaQKSXW-31" value="MySQL&lt;div&gt;&lt;br&gt;&lt;/div&gt;" style="sketch=0;outlineConnect=0;fontColor=#232F3E;gradientColor=none;fillColor=#C925D1;strokeColor=none;dashed=0;verticalLabelPosition=bottom;verticalAlign=top;align=center;html=1;fontSize=12;fontStyle=0;aspect=fixed;pointerEvents=1;shape=mxgraph.aws4.rds_instance;" vertex="1" parent="MIlLbQiRrZec8vaQKSXW-4">
          <mxGeometry x="933" y="473" width="44" height="44" as="geometry" />
        </mxCell>
        <mxCell id="MIlLbQiRrZec8vaQKSXW-38" value="" style="edgeStyle=orthogonalEdgeStyle;rounded=0;orthogonalLoop=1;jettySize=auto;html=1;entryX=0.5;entryY=0;entryDx=0;entryDy=0;curved=0;flowAnimation=0;shadow=0;endArrow=classicThin;endFill=1;startArrow=classic;startFill=1;" edge="1" parent="MIlLbQiRrZec8vaQKSXW-4" source="MIlLbQiRrZec8vaQKSXW-33" target="MIlLbQiRrZec8vaQKSXW-22">
          <mxGeometry relative="1" as="geometry" />
        </mxCell>
        <mxCell id="MIlLbQiRrZec8vaQKSXW-33" value="ALB&lt;br&gt;Frontend" style="sketch=0;outlineConnect=0;fontColor=#232F3E;gradientColor=none;fillColor=#8C4FFF;strokeColor=none;dashed=0;verticalLabelPosition=bottom;verticalAlign=top;align=center;html=1;fontSize=12;fontStyle=0;aspect=fixed;pointerEvents=1;shape=mxgraph.aws4.application_load_balancer;" vertex="1" parent="MIlLbQiRrZec8vaQKSXW-4">
          <mxGeometry x="600" y="40" width="78" height="78" as="geometry" />
        </mxCell>
        <mxCell id="MIlLbQiRrZec8vaQKSXW-42" value="" style="edgeStyle=orthogonalEdgeStyle;rounded=0;orthogonalLoop=1;jettySize=auto;html=1;startArrow=none;startFill=0;" edge="1" parent="MIlLbQiRrZec8vaQKSXW-4" source="MIlLbQiRrZec8vaQKSXW-39" target="MIlLbQiRrZec8vaQKSXW-23">
          <mxGeometry relative="1" as="geometry" />
        </mxCell>
        <mxCell id="MIlLbQiRrZec8vaQKSXW-39" value="ALB&lt;br&gt;Backend API" style="sketch=0;outlineConnect=0;fontColor=#232F3E;gradientColor=none;fillColor=#8C4FFF;strokeColor=none;dashed=0;verticalLabelPosition=bottom;verticalAlign=top;align=center;html=1;fontSize=12;fontStyle=0;aspect=fixed;pointerEvents=1;shape=mxgraph.aws4.application_load_balancer;" vertex="1" parent="MIlLbQiRrZec8vaQKSXW-4">
          <mxGeometry x="600" y="247" width="78" height="78" as="geometry" />
        </mxCell>
        <mxCell id="MIlLbQiRrZec8vaQKSXW-58" value="&lt;div&gt;DB&lt;/div&gt;" style="fillColor=#EFF0F3;strokeColor=none;dashed=0;verticalAlign=top;fontStyle=0;fontColor=#232F3D;whiteSpace=wrap;html=1;" vertex="1" parent="MIlLbQiRrZec8vaQKSXW-4">
          <mxGeometry x="260" y="440" width="260" height="110" as="geometry" />
        </mxCell>
        <mxCell id="MIlLbQiRrZec8vaQKSXW-6" value="VPC" style="points=[[0,0],[0.25,0],[0.5,0],[0.75,0],[1,0],[1,0.25],[1,0.5],[1,0.75],[1,1],[0.75,1],[0.5,1],[0.25,1],[0,1],[0,0.75],[0,0.5],[0,0.25]];outlineConnect=0;gradientColor=none;html=1;whiteSpace=wrap;fontSize=12;fontStyle=0;container=1;pointerEvents=0;collapsible=0;recursiveResize=0;shape=mxgraph.aws4.group;grIcon=mxgraph.aws4.group_vpc2;strokeColor=#8C4FFF;fillColor=none;verticalAlign=top;align=left;spacingLeft=30;fontColor=#AAB7B8;dashed=0;" vertex="1" parent="1">
          <mxGeometry x="260" y="350" width="540" height="560" as="geometry" />
        </mxCell>
        <mxCell id="MIlLbQiRrZec8vaQKSXW-7" value="Availability Zone" style="fillColor=none;strokeColor=#147EBA;dashed=1;verticalAlign=top;fontStyle=0;fontColor=#147EBA;whiteSpace=wrap;html=1;" vertex="1" parent="1">
          <mxGeometry x="290" y="400" width="480" height="470" as="geometry" />
        </mxCell>
        <mxCell id="MIlLbQiRrZec8vaQKSXW-43" value="" style="edgeStyle=orthogonalEdgeStyle;rounded=0;orthogonalLoop=1;jettySize=auto;html=1;startArrow=none;startFill=0;" edge="1" parent="1" source="MIlLbQiRrZec8vaQKSXW-8" target="MIlLbQiRrZec8vaQKSXW-39">
          <mxGeometry relative="1" as="geometry">
            <Array as="points">
              <mxPoint x="840" y="500" />
            </Array>
          </mxGeometry>
        </mxCell>
        <mxCell id="MIlLbQiRrZec8vaQKSXW-8" value="Frontend&lt;div&gt;&lt;br&gt;&lt;/div&gt;" style="fillColor=#EFF0F3;strokeColor=none;dashed=0;verticalAlign=top;fontStyle=0;fontColor=#232F3D;whiteSpace=wrap;html=1;" vertex="1" parent="1">
          <mxGeometry x="325" y="440" width="410" height="120" as="geometry" />
        </mxCell>
        <mxCell id="MIlLbQiRrZec8vaQKSXW-48" value="" style="edgeStyle=orthogonalEdgeStyle;rounded=0;orthogonalLoop=1;jettySize=auto;html=1;entryX=0.5;entryY=0;entryDx=0;entryDy=0;startArrow=none;startFill=0;" edge="1" parent="1" source="MIlLbQiRrZec8vaQKSXW-10" target="MIlLbQiRrZec8vaQKSXW-11">
          <mxGeometry relative="1" as="geometry" />
        </mxCell>
        <mxCell id="MIlLbQiRrZec8vaQKSXW-10" value="&lt;div&gt;Backend API&lt;/div&gt;" style="fillColor=#EFF0F3;strokeColor=none;dashed=0;verticalAlign=top;fontStyle=0;fontColor=#232F3D;whiteSpace=wrap;html=1;" vertex="1" parent="1">
          <mxGeometry x="325" y="590" width="410" height="110" as="geometry" />
        </mxCell>
        <mxCell id="MIlLbQiRrZec8vaQKSXW-11" value="&lt;div&gt;DB&lt;/div&gt;" style="fillColor=#EFF0F3;strokeColor=none;dashed=0;verticalAlign=top;fontStyle=0;fontColor=#232F3D;whiteSpace=wrap;html=1;" vertex="1" parent="1">
          <mxGeometry x="325" y="730" width="410" height="110" as="geometry" />
        </mxCell>
        <mxCell id="MIlLbQiRrZec8vaQKSXW-12" value="Amazon EC2" style="sketch=0;outlineConnect=0;fontColor=#232F3E;gradientColor=none;strokeColor=#ffffff;fillColor=#232F3E;dashed=0;verticalLabelPosition=middle;verticalAlign=bottom;align=center;html=1;whiteSpace=wrap;fontSize=10;fontStyle=1;spacing=3;shape=mxgraph.aws4.productIcon;prIcon=mxgraph.aws4.ec2;" vertex="1" parent="1">
          <mxGeometry x="586" y="615" width="40" height="65" as="geometry" />
        </mxCell>
        <mxCell id="MIlLbQiRrZec8vaQKSXW-13" value="Amazon EC2" style="sketch=0;outlineConnect=0;fontColor=#232F3E;gradientColor=none;strokeColor=#ffffff;fillColor=#232F3E;dashed=0;verticalLabelPosition=middle;verticalAlign=bottom;align=center;html=1;whiteSpace=wrap;fontSize=10;fontStyle=1;spacing=3;shape=mxgraph.aws4.productIcon;prIcon=mxgraph.aws4.ec2;" vertex="1" parent="1">
          <mxGeometry x="506" y="615" width="40" height="65" as="geometry" />
        </mxCell>
        <mxCell id="MIlLbQiRrZec8vaQKSXW-14" value="Amazon EC2" style="sketch=0;outlineConnect=0;fontColor=#232F3E;gradientColor=none;strokeColor=#ffffff;fillColor=#232F3E;dashed=0;verticalLabelPosition=middle;verticalAlign=bottom;align=center;html=1;whiteSpace=wrap;fontSize=10;fontStyle=1;spacing=3;shape=mxgraph.aws4.productIcon;prIcon=mxgraph.aws4.ec2;" vertex="1" parent="1">
          <mxGeometry x="400" y="615" width="40" height="65" as="geometry" />
        </mxCell>
        <mxCell id="MIlLbQiRrZec8vaQKSXW-15" value="Amazon EC2" style="sketch=0;outlineConnect=0;fontColor=#232F3E;gradientColor=none;strokeColor=#ffffff;fillColor=#232F3E;dashed=0;verticalLabelPosition=middle;verticalAlign=bottom;align=center;html=1;whiteSpace=wrap;fontSize=10;fontStyle=1;spacing=3;shape=mxgraph.aws4.productIcon;prIcon=mxgraph.aws4.ec2;" vertex="1" parent="1">
          <mxGeometry x="586" y="470" width="40" height="70" as="geometry" />
        </mxCell>
        <mxCell id="MIlLbQiRrZec8vaQKSXW-16" value="Amazon EC2" style="sketch=0;outlineConnect=0;fontColor=#232F3E;gradientColor=none;strokeColor=#ffffff;fillColor=#232F3E;dashed=0;verticalLabelPosition=middle;verticalAlign=bottom;align=center;html=1;whiteSpace=wrap;fontSize=10;fontStyle=1;spacing=3;shape=mxgraph.aws4.productIcon;prIcon=mxgraph.aws4.ec2;" vertex="1" parent="1">
          <mxGeometry x="506" y="470" width="40" height="70" as="geometry" />
        </mxCell>
        <mxCell id="MIlLbQiRrZec8vaQKSXW-17" value="Amazon EC2" style="sketch=0;outlineConnect=0;fontColor=#232F3E;gradientColor=none;strokeColor=#ffffff;fillColor=#232F3E;dashed=0;verticalLabelPosition=middle;verticalAlign=bottom;align=center;html=1;whiteSpace=wrap;fontSize=10;fontStyle=1;spacing=3;shape=mxgraph.aws4.productIcon;prIcon=mxgraph.aws4.ec2;" vertex="1" parent="1">
          <mxGeometry x="400" y="470" width="40" height="70" as="geometry" />
        </mxCell>
        <mxCell id="MIlLbQiRrZec8vaQKSXW-19" value="MySQL&lt;div&gt;&lt;br&gt;&lt;/div&gt;" style="sketch=0;outlineConnect=0;fontColor=#232F3E;gradientColor=none;fillColor=#C925D1;strokeColor=none;dashed=0;verticalLabelPosition=bottom;verticalAlign=top;align=center;html=1;fontSize=12;fontStyle=0;aspect=fixed;pointerEvents=1;shape=mxgraph.aws4.rds_instance;" vertex="1" parent="1">
          <mxGeometry x="513" y="763" width="44" height="44" as="geometry" />
        </mxCell>
        <mxCell id="MIlLbQiRrZec8vaQKSXW-36" value="" style="edgeStyle=orthogonalEdgeStyle;rounded=0;orthogonalLoop=1;jettySize=auto;html=1;entryX=0.5;entryY=0;entryDx=0;entryDy=0;startArrow=classic;startFill=1;" edge="1" parent="1" source="MIlLbQiRrZec8vaQKSXW-33" target="MIlLbQiRrZec8vaQKSXW-8">
          <mxGeometry relative="1" as="geometry" />
        </mxCell>
        <mxCell id="MIlLbQiRrZec8vaQKSXW-40" value="" style="edgeStyle=orthogonalEdgeStyle;rounded=0;orthogonalLoop=1;jettySize=auto;html=1;startArrow=none;startFill=0;" edge="1" parent="1" source="MIlLbQiRrZec8vaQKSXW-39" target="MIlLbQiRrZec8vaQKSXW-10">
          <mxGeometry relative="1" as="geometry" />
        </mxCell>
        <mxCell id="MIlLbQiRrZec8vaQKSXW-49" value="" style="edgeStyle=orthogonalEdgeStyle;rounded=0;orthogonalLoop=1;jettySize=auto;html=1;entryX=0.995;entryY=0.322;entryDx=0;entryDy=0;entryPerimeter=0;" edge="1" parent="1" source="MIlLbQiRrZec8vaQKSXW-23" target="MIlLbQiRrZec8vaQKSXW-11">
          <mxGeometry relative="1" as="geometry">
            <mxPoint x="1160" y="730" as="targetPoint" />
            <Array as="points">
              <mxPoint x="1165" y="710" />
              <mxPoint x="750" y="710" />
              <mxPoint x="750" y="765" />
            </Array>
          </mxGeometry>
        </mxCell>
        <mxCell id="MIlLbQiRrZec8vaQKSXW-63" value="" style="edgeStyle=orthogonalEdgeStyle;rounded=0;orthogonalLoop=1;jettySize=auto;html=1;" edge="1" parent="1" source="MIlLbQiRrZec8vaQKSXW-62" target="MIlLbQiRrZec8vaQKSXW-33">
          <mxGeometry relative="1" as="geometry" />
        </mxCell>
        <mxCell id="MIlLbQiRrZec8vaQKSXW-67" value="" style="edgeStyle=orthogonalEdgeStyle;rounded=0;orthogonalLoop=1;jettySize=auto;html=1;" edge="1" parent="1" source="MIlLbQiRrZec8vaQKSXW-66" target="MIlLbQiRrZec8vaQKSXW-64">
          <mxGeometry relative="1" as="geometry" />
        </mxCell>
        <mxCell id="MIlLbQiRrZec8vaQKSXW-66" value="Client" style="sketch=0;outlineConnect=0;fontColor=#232F3E;gradientColor=none;strokeColor=#232F3E;fillColor=#ffffff;dashed=0;verticalLabelPosition=bottom;verticalAlign=top;align=center;html=1;fontSize=12;fontStyle=0;aspect=fixed;shape=mxgraph.aws4.resourceIcon;resIcon=mxgraph.aws4.client;" vertex="1" parent="1">
          <mxGeometry x="820" y="-60" width="60" height="60" as="geometry" />
        </mxCell>
      </root>
    </mxGraphModel>
  </diagram>
</mxfile>
